<svg xmlns="http://www.w3.org/2000/svg" xmlns:xlink="http://www.w3.org/1999/xlink" version="1.1" >

    <defs>
              <g id="person">
                <circle fill="#FFFFFF" cx="24" cy="9.6" r="9.6"/>
                <path fill="#FFFFFF" d="M33.9,43.5c-1.2,0-2.2-1-2.2-2.2s1-2.2,2.2-2.2c0.6,0,1.2,0.2,1.6,0.6c0.8-0.4,1.3-0.8,1.4-1
                  c0-0.6-0.2-3.5-1.3-6.3c-1.3-3.2-3.2-4.8-5.8-4.8c-2.5,0-4.5,1.6-5.8,4.8c-1.1,2.7-1.3,5.6-1.3,6.3c0,0.2,0.6,0.6,1.4,1
                  c0.4-0.4,1-0.6,1.6-0.6c1.2,0,2.2,1,2.2,2.2s-1,2.2-2.2,2.2c-1,0-1.8-0.6-2.1-1.5c-2.9-1.2-3.1-2.8-3.1-3.3
                  c0-2.7,1.4-12.3,8.3-13.3c0-0.6,0-1.9-0.4-3.2H17c-0.9,1-1.2,2.3-1.2,3.7c1.9,0.2,3.5,1.6,4,3.5c0.5,2.5-1,4.9-3.5,5.5
                  c-2.5,0.5-4.9-1-5.5-3.5c-0.5-2.2,0.7-4.4,2.7-5.2c0-1.3,0.1-2.7,0.7-4h-0.6C6.1,22.2,0,28.6,0,36.4v32.8c0,0.7,0.1,1.3,0.4,1.9
                  c0.7,1.6,2.4,2.8,4.3,2.8c2.6,0,4.7-2.1,4.7-4.7v-0.4V37.9h1.8v30.3v55.9c0,3.2,2.6,5.9,5.9,5.9c3.2,0,5.9-2.6,5.9-5.9V75.2h2.2
                  v48.9c0,3.2,2.6,5.9,5.9,5.9c3.2,0,5.9-2.6,5.9-5.9V57.2V41.6c-0.3,0.1-0.6,0.3-0.9,0.4C35.7,42.9,34.9,43.5,33.9,43.5z"/>
                <path fill="#636464" d="M34.3,22.2h-3.7c0.3,1.3,0.3,2.6,0.3,3.2c6.8,1,8.2,10.6,8.2,13.3c0,0.2-0.1,0.7-0.4,1.3v16.6v12.6
                  c0,2.6,2.1,4.7,4.7,4.7c2.6,0,4.7-2.1,4.7-4.7V54.5V36.4C48,28.6,41.9,22.2,34.3,22.2z"/>
                <path fill="#636464" d="M12.9,31c0.3,1.3,1.6,2.1,2.9,1.8c1.3-0.3,2.1-1.6,1.8-2.9c-0.3-1.3-1.6-2.1-2.9-1.8
                  C13.5,28.4,12.7,29.7,12.9,31z M15,29.2c0.7-0.1,1.3,0.3,1.5,0.9c0.1,0.7-0.3,1.3-0.9,1.5c-0.7,0.1-1.3-0.3-1.5-0.9
                  C13.9,30,14.4,29.4,15,29.2z"/>
              </g>
            </defs>
</svg>
